<?xml version="1.0" encoding="utf-8"?>
<!-- Generator: Adobe Illustrator 17.1.0, SVG Export Plug-In . SVG Version: 6.00 Build 0)  -->
<!DOCTYPE svg PUBLIC "-//W3C//DTD SVG 1.1//EN" "http://www.w3.org/Graphics/SVG/1.1/DTD/svg11.dtd">
<svg version="1.1" id="Layer_1" xmlns="http://www.w3.org/2000/svg" xmlns:xlink="http://www.w3.org/1999/xlink" x="0px" y="0px"
	 viewBox="0 0 512 512" enable-background="new 0 0 512 512" xml:space="preserve">
<g>
	<g>
		<path d="M50.4,263.1c90.7,72.2,248.1,65.7,337.9-9c5.4-4.5-3-6.9-6.6-3.9c-86.3,71.8-236.3,76.7-323.3,7.5
			C55.3,255.2,46.1,259.7,50.4,263.1L50.4,263.1z"/>
	</g>
	<g>
		<path d="M70.9,245.6c93.5,58.3,202.7,29,297.1-6.4c6.8-2.6,0.4-4-3.6-2.5c-89.2,33.4-196.5,59.8-283.8,5.4
			C78,240.5,69.3,244.7,70.9,245.6L70.9,245.6z"/>
	</g>
	<g>
		<path d="M72.8,242.8c-13.3-3.9-24.9,3.1-31.5,14.7c-2.8,4.9,7.6,4.9,9.8,1.1c3.4-5.9,8.4-11.1,15.7-9
			C71.1,250.9,78.9,244.7,72.8,242.8L72.8,242.8z"/>
	</g>
	<g>
		<path d="M364.4,240.7c7.8,1.6,15.8,3.7,19.5,11.4c2.1,4.3,11.8,0.4,9.4-4.6c-4.7-9.7-15.7-12.6-25.4-14.6
			C362.6,231.9,357.6,239.3,364.4,240.7L364.4,240.7z"/>
	</g>
	<g>
		<path d="M82,241.9c23.8-104.6,277.1-126,275.5-3.2c0,2.6,10.2,0.8,10.3-2.8c1.7-127.3-269.2-110.1-295.9,7.4
			C71,246.7,81.3,245,82,241.9L82,241.9z"/>
	</g>
	<g>
		<path d="M108.8,202c7.4-2.7,20.8-3.8,27.8,0c4.9,2.7,6.8,10.9,8.6,15.7c2.6,6.9,5.3,13.7,7,20.9c2,8.4-1.7,17.5-3.6,25.6
			c-0.6,2.4,9.5,0.9,10.1-1.8c2.6-11,5.4-19.7,2.7-31c-2.1-8.8-6-22.3-11.8-29.5c-9.2-11.5-32.5-6.9-44.5-2.5
			C98.3,202,104.8,203.5,108.8,202L108.8,202z"/>
	</g>
	<g>
		<path d="M166.3,234.6c13.4-22.1,44.7-42.5,69.3-31.2c20.4,9.3,30.8,37.7,32,58.9c0.1,1.5,10.4-0.2,10.3-2.8
			c-1.8-30.5-23-68.8-58.4-68.6c-7.3,0-14.9,3.5-20.5,8c-14.7,11.7-32.8,21.2-42.8,37.6C155.7,237.4,164.8,237.1,166.3,234.6
			L166.3,234.6z"/>
	</g>
	<g>
		<path d="M270.9,227.6c11.3-6.4,18.2-16.2,24.7-27.2c3.4-5.7,6.8-11.5,10.4-17.1c3.9-6,25,3.9,30.5,5.4c2.4,0.6,11.5-3.3,8.4-4.1
			c-13.9-3.7-30.4-14.9-44-5.7c-6,4-9.9,13.8-13.4,19.8c-6.5,11.1-13,21.9-24.5,28.4C258.6,229.6,269,228.7,270.9,227.6L270.9,227.6
			z"/>
	</g>
	<g>
		<path d="M134.7,194.7c15.5-15.6,30.6-22.6,54.1-17.5c13.5,2.9,25.8,4.1,31.7,18.5c1.2,3,11.3-0.3,10.3-2.8
			c-7.8-19-34.4-23.4-53.9-23.7c-22-0.4-36.5,10.8-51.5,25.9C122.7,197.6,132.7,196.6,134.7,194.7L134.7,194.7z"/>
	</g>
	<g>
		<path d="M230.8,183.2c-0.5-26.6,55.1-24.3,64.7-5.2c2.1,4.1,12.1,1,10.3-2.8c-12.9-25.9-86-26.6-85.3,8.9
			C220.5,189.2,230.9,187.3,230.8,183.2L230.8,183.2z"/>
	</g>
	<g>
		<path d="M393.7,245.4c5.3-28,12.3-55.2,45.7-58.7c12.8-1.4,22,2,32.2,9.1c13,9,20.8,29.5,1,35.4c-16.1,4.8-33.3-4-45.7,10.5
			c-4.3,5-6.5,12.2-8.9,18.2c-6.2,15.6-16.4,24.2-32.8,29c-6.2,1.8-4.6,8,1.7,6.2c12.4-3.6,23-9.4,32.3-18.3
			c17-16.2,5.4-38.6,40.3-37.8c19.6,0.5,46.4-9.4,33.2-34.1c-12.1-22.7-39.6-29.1-63.2-23.2c-31.7,7.8-40.4,35.8-45.9,64.8
			C382.5,251.1,392.9,249.5,393.7,245.4L393.7,245.4z"/>
	</g>
	<g>
		<path d="M65.7,275.5c-9.7,6.7-16.1,15.3-28.6,16.9c-7.2,0.9-14.4,2-20.2,6.7c-1.6,1.3-1.2,3.2,0.9,3.4c10,1.1,20,1.7,29.9,2.8
			c10.9,1.3,21.3,4.3,32.3,4.5c3.7,0.1,11-5.4,4.1-5.6c-10.2-0.2-20-2.8-30-4.3c-9.9-1.5-20-1.7-29.9-2.8c0.3,1.1,0.6,2.3,0.9,3.4
			c6.2-5,17.2-2.3,24.5-5.7c8.8-4.1,14.5-11.1,22.4-16.6C77.8,274.4,68.8,273.4,65.7,275.5L65.7,275.5z"/>
	</g>
	<g>
		<path d="M77.9,308.5C78,323,80.6,342,87,355.1c4.5,9.1,19.4,8.2,27.8,8.8c6.7,0.5,19,1.6,23.8-4.5c6-7.6,7.2-20.7,8.9-29.9
			c0.7-4.1-9.6-2.4-10.3,1.2c-1.1,6.1-2.5,12-4.1,18c-0.9,3.2-1.8,6.5-3.4,9.5c-0.6,1.1-12.1-0.3-13.8-0.4
			c-10.6-0.8-18.6-1.6-21.5-13.3c-3-11.9-6.2-24.8-6.3-37.1C88.2,302.9,77.9,305,77.9,308.5L77.9,308.5z"/>
	</g>
	<g>
		<path d="M144.7,336c58.1,15.3,125.4,11.9,180.5-13.8c6.4-3,0.7-8.1-4.5-5.7c-52,24.1-115.3,27.2-170.1,12.8
			C146.5,328.3,138.5,334.4,144.7,336L144.7,336z"/>
	</g>
	<g>
		<path d="M317,321.9c-0.2,7.9-2.8,27.9,4.9,32.9c8.4,5.5,25.1,3,34.5,2.5c9.7-0.5,18.7-1.7,23.1-11.6c7.6-17.1,7.4-36.4,11.6-54.3
			c0.9-3.7-9.4-2.1-10.3,1.3c-2.9,12.3-4,25-6.5,37.4c-1,4.9-2.3,9.6-4,14.3c-2.7,7.3-5.5,6.9-12.4,7.3c-8.3,0.4-19.2,1.6-27.2-1.4
			c-5.4-2-3.6-25.3-3.5-29.8C327.4,316.4,317.1,318.5,317,321.9L317,321.9z"/>
	</g>
	<g>
		<path d="M452.7,197.9c-0.7,1.9-0.9,2.5-0.9,4.5c0.1,5.3,10.5,3.7,10.4-0.8c0.1-0.9,0.2-1.7,0.3-2.6
			C464.6,193.5,454.3,193.7,452.7,197.9L452.7,197.9z"/>
	</g>
	<g>
		<path d="M455.4,220.4c2.4,11.1,16.4,9.9,25,8.2c1.8-0.4,5.2-1.1,5.9-3.2c0.7-2.1-3.3-2-4.3-1.8c-6.4,1.2-14.6,2-16.3-5.9
			C465,214.6,454.7,217.2,455.4,220.4L455.4,220.4z"/>
	</g>
</g>
</svg>
